<?xml version="1.0"?><svg width="640" height="480" xmlns="http://www.w3.org/2000/svg">
 <title>mountain</title>
 <g>
  <title>Layer 1</title>
  <path d="m22.221245,199.825943c6.466072,-1.711487 13.106186,-3.019913 19.466423,-4.924393c6.547928,-0.464813 12.261086,-2.945679 18.42984,-4.380219c3.155151,-1.012329 8.586929,-2.694595 9.966537,-2.638351c1.379608,-0.07341 6.915085,0.294785 10.277603,1.04892c6.33287,-0.035568 9.856827,-4.881546 17.314758,-5.705734c5.694199,-2.929321 12.550308,-1.459381 18.854385,-2.643585c7.077621,-0.414246 11.868225,-5.279739 19.219391,-4.968887c6.297729,-0.561951 13.022415,-1.507339 18.679901,-3.56691c6.982056,-1.33252 12.021027,-3.256668 18.614243,-3.865479c7.478378,0.395645 18.302597,3.306656 24.217789,-0.713226c5.197815,-2.468307 11.012268,-3.898285 16.374115,-6.128174c5.847351,-1.290695 11.121429,-3.687622 16.506378,-5.714294c2.960205,-0.628418 5.209778,-2.011002 7.220978,-3.634415c2.011261,-1.623398 3.784241,-3.487625 5.791229,-5.079239c5.775513,-1.896088 10.446594,-4.655807 14.702637,-8.146484c2.836914,-2.555481 3.980499,-6.31543 9.206512,-6.990219c4.149017,-3.127686 8.74707,-5.827454 13.132996,-8.776573c1.968353,-4.598541 9.214905,-5.613876 14.25824,-7.731346c2.935028,-0.992302 5.689178,-1.277718 8.442505,-1.696106c2.753296,0.424591 5.505737,1.364639 8.095337,2.693573c0.924072,0.429283 7.836151,-0.402626 8.786774,-0.072609c0.603577,0.229866 2.410034,1.609406 4.385315,2.244873c1.80423,0.181549 4.119293,0.526871 4.372009,0.893036c0.50296,0.839218 0.477417,0.738731 0.982574,1.263054c5.692535,1.834862 11.630035,4.526665 14.084839,5.79007c2.96286,0.816727 5.892395,1.688675 8.779846,2.638489c2.88736,0.949814 5.732605,1.977493 8.526855,3.105759c5.251953,0.319855 5.735138,6.495209 13.24118,8.636353c4.977478,4.001648 11.863708,5.808792 16.885834,9.682495c6.271301,2.630249 12.65451,4.40448 20.115814,3.86058c4.851959,0.165878 10.602631,6.293335 15.716736,8.784973c5.042755,1.02417 10.591583,0.557587 15.206787,3.313034c5.417999,3.07724 10.469391,5.760056 15.293915,9.391876c4.076416,3.805023 9.920898,6.129807 16.540527,4.914429c6.965698,0.080154 13.231445,-3.067947 20.272522,-1.117065c8.583252,0.81488 16.607483,3.479568 24.170837,6.567383c5.777466,1.623199 10.207886,6.074112 16.907776,5.370026c8.139954,0.496582 16.526123,0.586563 24.113098,3.19545c5.880432,1.711853 12.521362,0.855972 18.012207,3.435928c8.721252,2.505585 10.958435,3.283539 19.33075,6.578751c6.68396,1.834732 16.355957,3.789139 21.148438,7.078476c5.354553,2.986542 11.446838,4.821213 17.397583,6.705414c6.215881,4.094986 -13.063965,1.421417 -15.907776,1.532196c-11.817749,-0.199844 -19.255798,4.265396 -25.70575,5.550781c-7.175049,1.892319 -13.396179,2.34874 -19.700439,-0.137955c-7.200989,-1.679642 -14.848328,-1.908295 -22.310242,-2.300247c-4.304443,0.320892 -11.316895,-2.85582 -14.090454,-0.302994c1.694702,4.906616 2.847961,7.102234 -5.571716,5.22258c-6.629395,-1.674789 -12.961243,-3.854202 -19.391785,-5.897232c-8.277405,-1.675156 -16.247742,-4.863785 -25.071533,-4.209991c-7.731506,-0.365891 -15.382263,0.46611 -23.037109,0.701447c-8.357361,-0.188934 -16.954285,-0.801605 -25.070679,1.108459c-6.694977,1.411423 -13.427917,2.750092 -20.022064,4.311768c-7.432098,3.732986 -16.776459,1.675278 -25.053802,1.637512c-7.292969,-0.202469 -14.458069,-0.934525 -21.359467,-2.810471c-12.055603,-2.861588 -24.561523,-4.290833 -36.888123,-6.270294c-8.137115,-1.32753 -16.335724,-2.726776 -23.693085,-5.801422c-5.52771,-1.877838 -10.854828,-4.081253 -16.434967,-5.7948c-4.581757,-2.293808 -11.708527,-6.470566 -16.071716,-1.782089c-5.983276,2.204117 -12.828156,2.160278 -17.901581,5.833221c-3.628143,4.734207 -9.693695,7.45578 -17.122681,6.349426c-6.877808,1.334488 -13.705414,0.032516 -20.468018,-1.033646c-7.669891,-1.258072 -15.07019,-3.325089 -22.961761,-3.711807c-6.980042,-1.117447 -14.070358,-1.687088 -21.158295,-2.239197c-7.402161,-0.708588 -15.359467,0.218613 -22.118042,-2.674454c-7.841385,-0.839661 6.774368,-5.958832 -1.855911,-5.926895c-8.839951,-0.279739 -18.080963,-0.104996 -26.23262,2.766403c-6.564255,2.414688 -15.554749,-1.435867 -20.885895,2.545273c-2.274918,4.699112 -9.764282,2.79837 -14.735733,3.705841c-6.442719,2.426712 -13.671097,2.372192 -20.612793,3.248367c-5.726837,0.873611 -11.581665,1.420502 -17.210747,-0.43071c-9.549438,-2.068405 -19.028046,-5.325348 -29.183701,-4.625992c-8.180336,-0.003296 -16.357094,0.889175 -24.531197,0.46608c6.022476,-1.265442 11.337006,-3.635162 16.235809,-6.577423c0.970634,-0.45755 1.965576,-0.92363 3.079857,-1.151367z" id="path2639" stroke-opacity="0.660714" stroke-width="1px" fill-rule="evenodd" fill="#ffffff"/>
 </g>
</svg>